# xmcd CD database file
#
# Track frame offsets:
#	200
#	26277
#	49140
#	73290
#	97222
#	122460
#	149955
#	172682
#	192200
#	213800
#	235070
#	253802
#	279175
#
# Disc length: 3986 seconds
#
# Revision: 0
# Processed by: cddbd v1.4PL0 Copyright (c) Steve Scherf et al.
# Submitted via: CDex 1.50beta8
#
DISCID=bb0f900d
DTITLE=Tony Packo's Cakewalkin' Jass Band - Cakewalkin'
DYEAR=1900
DGENRE=Jazz
TTITLE0=Dusky Stevedore
TTITLE1=When My Dream Boat Comes Home
TTITLE2=Careless Love
TTITLE3=Dreaming the Hours Away
TTITLE4=Once in a While
TTITLE5=Wolverine Blues
TTITLE6=What a Little Moonlight Can Do
TTITLE7=Mabel's Dream
TTITLE8=When I Leave the World Behind
TTITLE9=Oh, My Babe Blues
TTITLE10=Precious Lord, Take My Hand
TTITLE11=Blue Bells, Good Bye
TTITLE12=When I Grow Too Old To Dream
EXTD=
EXTT0=
EXTT1=
EXTT2=
EXTT3=
EXTT4=
EXTT5=
EXTT6=
EXTT7=
EXTT8=
EXTT9=
EXTT10=
EXTT11=
EXTT12=
PLAYORDER=
